<svg xmlns="http://www.w3.org/2000/svg" xmlns:xlink="http://www.w3.org/1999/xlink" width="500" zoomAndPan="magnify" viewBox="0 0 375 374.999991" height="500" preserveAspectRatio="xMidYMid meet" version="1.0"><rect x="-37.5" width="450" fill="none" y="-37.499999" height="449.999989" fill-opacity="1"/><path stroke-linecap="round" transform="matrix(19.343747, 0, 0, 19.343747, -45.004569, -44.510447)" fill="none" stroke-linejoin="round" d="M 7.000035 13.4545 L 8.976207 15.340809 C 9.362717 15.709751 9.970754 15.709751 10.357063 15.340809 L 17.000037 8.999935 " stroke="currentColor" stroke-width="1" stroke-opacity="1" stroke-miterlimit="4"/><path stroke-linecap="round" transform="matrix(19.343747, 0, 0, 19.343747, -45.004569, -44.510447)" fill="none" stroke-linejoin="round" d="M 21.000037 11.999936 C 21.000037 12.147351 20.996402 12.294564 20.989132 12.441576 C 20.981863 12.588789 20.97116 12.735598 20.95662 12.882206 C 20.942283 13.028813 20.924108 13.174815 20.902501 13.320615 C 20.880893 13.466212 20.855853 13.611406 20.826976 13.755792 C 20.7983 13.900178 20.76599 14.043959 20.730247 14.186729 C 20.694504 14.329702 20.655126 14.471665 20.612517 14.612618 C 20.569706 14.753571 20.523462 14.893313 20.473987 15.032045 C 20.42431 15.170776 20.3712 15.308095 20.314859 15.444201 C 20.258518 15.580308 20.198946 15.714799 20.135942 15.848079 C 20.072937 15.981156 20.006701 16.112618 19.937234 16.242667 C 19.867767 16.372513 19.795271 16.500542 19.719544 16.626956 C 19.643817 16.753168 19.565061 16.877562 19.483276 17.000138 C 19.401491 17.122513 19.316677 17.243071 19.228833 17.361205 C 19.141192 17.479541 19.050521 17.595656 18.957024 17.709549 C 18.863728 17.823442 18.767403 17.934912 18.668655 18.043959 C 18.569706 18.153208 18.46813 18.259832 18.36393 18.364032 C 18.25973 18.46803 18.153106 18.569606 18.044059 18.668555 C 17.93481 18.767505 17.82334 18.863628 17.709447 18.957126 C 17.595756 19.050623 17.479641 19.141092 17.361305 19.228935 C 17.242969 19.316577 17.122613 19.401391 17.000037 19.483176 C 16.877662 19.564961 16.753268 19.643919 16.626854 19.719646 C 16.500642 19.795373 16.372411 19.867869 16.242565 19.937336 C 16.112718 20.006803 15.981054 20.072837 15.847977 20.135842 C 15.714899 20.198846 15.580206 20.25862 15.444099 20.314961 C 15.307993 20.371302 15.170674 20.42421 15.031943 20.473887 C 14.893413 20.523564 14.753469 20.569606 14.612516 20.612417 C 14.471563 20.655228 14.3296 20.694404 14.186829 20.730349 C 14.043857 20.766092 13.900278 20.798402 13.755892 20.827078 C 13.611304 20.855753 13.466312 20.880995 13.320513 20.902603 C 13.174915 20.92421 13.028711 20.942183 12.882104 20.956722 C 12.735496 20.97106 12.588687 20.981965 12.441676 20.989234 C 12.294462 20.996302 12.147249 20.999937 12.000036 20.999937 C 11.852621 20.999937 11.705407 20.996302 11.558396 20.989234 C 11.411183 20.981965 11.264373 20.97106 11.117766 20.956722 C 10.97136 20.942183 10.825157 20.92421 10.679357 20.902603 C 10.533759 20.880995 10.388566 20.855753 10.244179 20.827078 C 10.099793 20.798402 9.956013 20.766092 9.813242 20.730349 C 9.67027 20.694404 9.528307 20.655228 9.387354 20.612417 C 9.246401 20.569606 9.106659 20.523564 8.967927 20.473887 C 8.829397 20.42421 8.691877 20.371302 8.55577 20.314961 C 8.419866 20.25862 8.285173 20.198846 8.152095 20.135842 C 8.018816 20.072837 7.887354 20.006803 7.757507 19.937336 C 7.627459 19.867869 7.499429 19.795373 7.373016 19.719646 C 7.246804 19.643919 7.12241 19.564961 6.999833 19.483176 C 6.877458 19.401391 6.757103 19.316577 6.638767 19.228935 C 6.520431 19.141092 6.404316 19.050623 6.290423 18.957126 C 6.176529 18.863628 6.065059 18.767505 5.956012 18.668555 C 5.846764 18.569606 5.74014 18.46803 5.63594 18.364032 C 5.531941 18.259832 5.430366 18.153208 5.331416 18.043959 C 5.232466 17.934912 5.136344 17.823442 5.042846 17.709549 C 4.94955 17.595656 4.85888 17.479541 4.771037 17.361205 C 4.683395 17.243071 4.598581 17.122513 4.516796 17.000138 C 4.435011 16.877562 4.356255 16.753168 4.280528 16.626956 C 4.204801 16.500542 4.132103 16.372513 4.062636 16.242667 C 3.993371 16.112618 3.927135 15.981156 3.86413 15.848079 C 3.801125 15.714799 3.741351 15.580308 3.685011 15.444201 C 3.62867 15.308095 3.575762 15.170776 3.526085 15.032045 C 3.476408 14.893313 3.430366 14.753571 3.387555 14.612618 C 3.344744 14.471665 3.305568 14.329702 3.269623 14.186729 C 3.23388 14.043959 3.201569 13.900178 3.172894 13.755792 C 3.144219 13.611406 3.118977 13.466212 3.097369 13.320615 C 3.075762 13.174815 3.057789 13.028813 3.04325 12.882206 C 3.028912 12.735598 3.018007 12.588789 3.010939 12.441576 C 3.00367 12.294564 3.000035 12.147351 3.000035 11.999936 C 3.000035 11.852723 3.00367 11.705509 3.010939 11.558296 C 3.018007 11.411285 3.028912 11.264475 3.04325 11.117868 C 3.057789 10.97126 3.075762 10.825057 3.097369 10.679459 C 3.118977 10.533659 3.144219 10.388667 3.172894 10.244281 C 3.201569 10.099693 3.23388 9.956115 3.269623 9.813142 C 3.305568 9.670372 3.344744 9.528409 3.387555 9.387456 C 3.430366 9.246503 3.476408 9.106761 3.526085 8.968029 C 3.575762 8.829297 3.62867 8.691979 3.685011 8.555872 C 3.741351 8.419766 3.801125 8.285073 3.86413 8.151995 C 3.927135 8.018918 3.993371 7.887254 4.062636 7.757407 C 4.132103 7.62756 4.204801 7.499329 4.280528 7.373118 C 4.356255 7.246704 4.435011 7.12231 4.516796 6.999935 C 4.598581 6.877358 4.683395 6.757003 4.771037 6.638667 C 4.85888 6.520331 4.94955 6.404418 5.042846 6.290525 C 5.136344 6.176631 5.232466 6.065161 5.331416 5.955912 C 5.430366 5.846866 5.531941 5.740242 5.63594 5.636042 C 5.74014 5.531841 5.846764 5.430266 5.956012 5.331518 C 6.065059 5.232568 6.176529 5.136445 6.290423 5.042948 C 6.404316 4.94945 6.520431 4.85878 6.638767 4.771138 C 6.757103 4.683295 6.877458 4.598683 6.999833 4.516696 C 7.12241 4.434911 7.246804 4.356155 7.373016 4.280428 C 7.499429 4.204701 7.627459 4.132205 7.757507 4.062738 C 7.887354 3.993271 8.018816 3.927035 8.152095 3.86403 C 8.285173 3.801025 8.419866 3.741453 8.55577 3.685112 C 8.691877 3.628772 8.829397 3.575662 8.967927 3.526187 C 9.106659 3.47651 9.246401 3.430266 9.387354 3.387455 C 9.528307 3.344846 9.67027 3.305468 9.813242 3.269725 C 9.956013 3.233982 10.099793 3.201671 10.244179 3.172996 C 10.388566 3.144119 10.533759 3.119078 10.679357 3.097471 C 10.825157 3.075864 10.97136 3.057689 11.117766 3.043351 C 11.264373 3.028812 11.411183 3.018109 11.558396 3.010839 C 11.705407 3.00357 11.852621 2.999935 12.000036 2.999935 C 12.147249 2.999935 12.294462 3.00357 12.441676 3.010839 C 12.588687 3.018109 12.735496 3.028812 12.882104 3.043351 C 13.028711 3.057689 13.174915 3.075864 13.320513 3.097471 C 13.466312 3.119078 13.611304 3.144119 13.755892 3.172996 C 13.900278 3.201671 14.043857 3.233982 14.186829 3.269725 C 14.3296 3.305468 14.471563 3.344846 14.612516 3.387455 C 14.753469 3.430266 14.893413 3.47651 15.031943 3.526187 C 15.170674 3.575662 15.307993 3.628772 15.444099 3.685112 C 15.580206 3.741453 15.714899 3.801025 15.847977 3.86403 C 15.981054 3.927035 16.112718 3.993271 16.242565 4.062738 C 16.372411 4.132205 16.500642 4.204701 16.626854 4.280428 C 16.753268 4.356155 16.877662 4.434911 17.000037 4.516696 C 17.122613 4.598683 17.242969 4.683295 17.361305 4.771138 C 17.479641 4.85878 17.595756 4.94945 17.709447 5.042948 C 17.82334 5.136445 17.93481 5.232568 18.044059 5.331518 C 18.153106 5.430266 18.25973 5.531841 18.36393 5.636042 C 18.46813 5.740242 18.569706 5.846866 18.668655 5.955912 C 18.767403 6.065161 18.863728 6.176631 18.957024 6.290525 C 19.050521 6.404418 19.141192 6.520331 19.228833 6.638667 C 19.316677 6.757003 19.401491 6.877358 19.483276 6.999935 C 19.565061 7.12231 19.643817 7.246704 19.719544 7.373118 C 19.795271 7.499329 19.867767 7.62756 19.937234 7.757407 C 20.006701 7.887254 20.072937 8.018918 20.135942 8.151995 C 20.198946 8.285073 20.258518 8.419766 20.314859 8.555872 C 20.3712 8.691979 20.42431 8.829297 20.473987 8.968029 C 20.523462 9.106761 20.569706 9.246503 20.612517 9.387456 C 20.655126 9.528409 20.694504 9.670372 20.730247 9.813142 C 20.76599 9.956115 20.7983 10.099693 20.826976 10.244281 C 20.855853 10.388667 20.880893 10.533659 20.902501 10.679459 C 20.924108 10.825057 20.942283 10.97126 20.95662 11.117868 C 20.97116 11.264475 20.981863 11.411285 20.989132 11.558296 C 20.996402 11.705509 21.000037 11.852723 21.000037 11.999936 Z M 21.000037 11.999936 " stroke="currentColor" stroke-width="1" stroke-opacity="1" stroke-miterlimit="4"/></svg>